<svg id="Calque_1" data-name="Calque 1" xmlns="http://www.w3.org/2000/svg" viewBox="0 0 213.43 167.14"><defs><style>.cls-1{fill:#fff;}</style></defs><path class="cls-1" d="M190.09,80.17c0,4.72.14,28-15.81,44.81C156.47,143.74,124.7,148,95.52,135c-15.61,9.37-28.74,12.8-37.17,14.23-3.24.55-9.64,1.45-10.7-.79-1.91-4,15.72-13.39,14.43-26.21-.06-.6-.15-1.09-.21-1.39l-1.93-1.93a54.16,54.16,0,0,1-16.67-15.19c-9.94-14-13.49-33.88-6.56-51.49,5-12.62,15-23,28.73-29.06,18.13-8,33.4-10.49,41.14-10.71,12-.35,47.77-1.39,69.22,25.5C188.45,53.79,190.05,71.78,190.09,80.17Z"/></svg>