<svg id="Calque_1" data-name="Calque 1" xmlns="http://www.w3.org/2000/svg" viewBox="0 0 217.29 163.29"><defs><style>.cls-1{fill:#fff;}</style></defs><path class="cls-1" d="M97.91,106.56c-15.84,15.37-36.88,15.78-54.52-1.5v21.55c0,2.85.13,5.4,2,8.06,2.31,3.2,1.36,7.41,1,11.23-.1,1-1.1,1.25-2,1.26-2.89,0-5.77,0-8.65,0-1.73,0-2.43-.88-2.39-2.52.12-4.34-.92-8.94,2.88-12.47.66-.61.46-1.63.46-2.49,0-7.89,0-15.77,0-23.66a5.16,5.16,0,0,0-1.88-4,6.87,6.87,0,0,1-1.34-8.24,7.27,7.27,0,0,1,7.39-4,7.46,7.46,0,0,1,6.19,5.7,3.67,3.67,0,0,1,0,2.55c-1.44,2.78.25,4.14,2.18,5.66,10,7.9,20.91,11.23,33.39,6.85a37.86,37.86,0,0,0,11.5-7c1.18-1,1.23-1.86.66-3.24-1.55-3.69-.74-6.9,2-9a7.29,7.29,0,0,1,8.62-.17c2.78,2,3.78,5.08,2.56,8.69-.47,1.38-.41,2.31.74,3.28,14.25,11.91,30.82,13.23,45.3.84,1.67-1.43,2.5-2.65,1.67-5.11a6.79,6.79,0,0,1,3.92-8.36A7.17,7.17,0,0,1,167.83,102a6,6,0,0,0-1.72,4.66c0,7.88,0,15.77,0,23.65a3.25,3.25,0,0,0,.84,2.62c3.8,3.76,2,8.51,2.12,12.89.05,1.19-1.22,1.33-2.2,1.34-2.69,0-5.38,0-8.07,0-1.79,0-2.71-.71-2.59-2.58.26-4.21-1.15-8.75,2.59-12.26a2.9,2.9,0,0,0,.44-1.91c0-7.6,0-15.19,0-22.79a9.27,9.27,0,0,0-.36-1.67c-18,16.82-35.94,15.77-54.24.06v14.73c0,2.6.07,5.2,0,7.79a7.59,7.59,0,0,0,1.74,5.24c2.82,3.69,1.57,8.1,1.4,12.26,0,.86-1,1.08-1.82,1.08-3,0-6,0-8.94,0-1.79,0-2.34-1.1-2.31-2.63.09-4.26-.88-8.76,2.8-12.21a2,2,0,0,0,.42-1.33C97.92,123.05,97.91,115.09,97.91,106.56Z"/><path class="cls-1" d="M177.2,23.26q-72.31,0-144.65,0C27.08,23.26,25,25.43,25,31q0,14.33,0,28.66c0,7.07,1.6,8.7,8.55,8.7h71q36.33,0,72.65,0c5.77,0,7.65-1.86,7.67-7.52q0-15,0-30C184.82,25.21,182.87,23.26,177.2,23.26Z"/></svg>