<svg id="Calque_1" data-name="Calque 1" xmlns="http://www.w3.org/2000/svg" viewBox="0 0 203.49 153"><defs><style>.cls-1{fill:#3b163a;}</style></defs><path class="cls-1" d="M100,86.56q0,21.78,0,43.57c0,1,.56,2.36-.72,2.8-1,.32-1.65-.78-2.33-1.41-11.67-10.62-25.79-15-41.16-16.32-2.85-.24-5.71-.36-8.56-.62a5.9,5.9,0,0,1-5.57-5.86c-.06-.74,0-1.48,0-2.22q0-41.67,0-83.32c0-6.5,1.86-8.45,8.32-8.25,15.66.49,30.22,4.15,42.05,15.21a66.22,66.22,0,0,1,4.9,5.41,13.44,13.44,0,0,1,3.19,9.35C99.9,58.78,100,72.67,100,86.56Z"/><path class="cls-1" d="M108.45,86.72c0-13,.41-26.1-.17-39.11-.33-7.31,2.8-12.32,7.58-17,9.38-9.1,21-13.31,33.63-15.06a63,63,0,0,1,10.46-.7c4.58.13,6.87,2.27,6.88,6.85q0,43.1,0,86.19c0,4.39-2.21,6.48-6.7,6.71-10.08.52-20,1.64-29.57,5.32a58.91,58.91,0,0,0-19.16,11.66c-.66.61-1.32,1.73-2.35,1.26s-.58-1.7-.58-2.59Q108.43,108.51,108.45,86.72Z"/><path class="cls-1" d="M91.25,138.61A127.08,127.08,0,0,0,69.11,136a163.19,163.19,0,0,0-37.86,3.65c-5.69,1.23-8.73-1.33-8.73-7.18q0-45,0-90c0-5.09,2.29-7.43,7.21-7.66,2.36-.1,3.49.63,3.45,3.23-.12,7.1,0,14.21,0,21.31q0,23.22,0,46.43c0,11.45,5.68,17,17.22,17.31,13.72.36,26.65,3.48,37.85,11.93A6.65,6.65,0,0,1,91.25,138.61Z"/><path class="cls-1" d="M116.75,138.68a21.71,21.71,0,0,1,7.07-6.15c9.76-6.15,20.63-8.61,32-9.39,1.06-.07,2.12,0,3.18,0,10.45-.23,16.3-6.14,16.31-16.59q0-32.91,0-65.83c0-1,.07-1.91,0-2.86-.18-2.26,1-3,3.06-3,4.93,0,7.57,2.45,7.57,7.31q0,45.48,0,90.95c0,5.13-3.27,7.82-8.37,6.67A163.64,163.64,0,0,0,134,136.2C128.48,136.45,123.1,137.55,116.75,138.68Z"/></svg>