<svg id="Calque_1" data-name="Calque 1" xmlns="http://www.w3.org/2000/svg" viewBox="0 0 136.29 203.14"><defs><style>.cls-1{fill:#3b163a;}</style></defs><path class="cls-1" d="M103.68,83.16c-.32,7.87.53,17.58-.44,27.27-1.57,15.61-15.9,28.32-31.76,28.14S41.33,126,40.08,110.46c-1.31-16.28-.25-32.62-.52-48.93A80.73,80.73,0,0,1,40,52C41.58,37,55.43,24.9,70.48,24.27c17.09-.71,30,12.73,32.34,25.13a50.27,50.27,0,0,1,.82,8.58C103.75,65.76,103.68,73.55,103.68,83.16Z"/><path class="cls-1" d="M71.63,188.72c-10.24,0-20.48,0-30.71,0-4.6,0-7.39-2.55-7.34-6.56s2.82-6.61,7.37-6.65c6.93-.06,13.87-.1,20.79,0,2.53,0,3.48-.82,3.29-3.33-.21-2.75.69-6-.51-8.15-1.29-2.31-5-1.62-7.63-2.29-21.83-5.53-39-25.22-41.9-47.87-.83-6.6-.46-13.2-.45-19.8a6.93,6.93,0,0,1,6.35-6.84c3.4-.16,6.31,2.42,6.88,6.24.65,4.35.39,8.74.28,13.1-.57,22.06,17.06,40.08,36.07,43,30.55,4.74,51.15-19.65,51-41.09q0-5.59.08-11.19a27.56,27.56,0,0,1,.39-4.45A6.76,6.76,0,0,1,122,87.26c3.07-.05,6.07,2.61,6.65,5.87a60.4,60.4,0,0,1-34.16,65.78,52.56,52.56,0,0,1-13.78,4c-1.85.29-2.59,1.07-2.5,2.92a54.66,54.66,0,0,1,0,6.4c-.19,2.49.73,3.38,3.27,3.34,7.14-.13,14.29-.07,21.43,0a6.67,6.67,0,0,1,4,12.09,7.15,7.15,0,0,1-4.56,1.12Z"/></svg>