<svg id="Calque_1" data-name="Calque 1" xmlns="http://www.w3.org/2000/svg" viewBox="0 0 200.27 188.25"><defs><style>.cls-1{fill:#fff;}</style></defs><path class="cls-1" d="M183.32,60.88h-.1c-.47-11.41-8.76-19.5-20.34-19.57-8.52-.06-17-.16-25.56,0-3.25.08-4.27-1-4-4.14a42,42,0,0,0,0-6.54,9.57,9.57,0,0,0-9.23-9.25q-20.88-.22-41.78,0a9.58,9.58,0,0,0-9.24,9.24C73,32.43,73,34.2,73,36c0,5.32,0,5.32-5.17,5.32-8.42,0-16.84-.07-25.26,0A19.77,19.77,0,0,0,23.14,60.88c-.05,7.17,0,14.35,0,21.52,0,.54,0,1,0,1.43v15a10.61,10.61,0,0,0-.08,1.34c0,2.81.05,5.62.08,8.43V144.5c0,2-.08,3.92-.14,5.87a21,21,0,0,0,21.13,21.27c19.63-.42,39.28-.11,58.92-.11v0c20.26,0,40.52.07,60.78,0a19.68,19.68,0,0,0,19.42-19.56v-5.35h.07ZM87.1,32.26a11.3,11.3,0,0,1,3.06-.42q13.07-.06,26.12,0c1.78,0,3.6.13,4.94,1.46A6.74,6.74,0,0,1,122.7,40c-.57,2.22-2.8,1.23-4.3,1.27-5.18.11-10.36,0-15.54,0-5,0-10,.09-14.92,0-1.61-.05-4,1.12-4.43-1.9C83,35.93,84.41,33.05,87.1,32.26Z"/></svg>