<svg id="Calque_1" data-name="Calque 1" xmlns="http://www.w3.org/2000/svg" viewBox="0 0 190.44 144.64"><defs><style>.cls-1{fill:#3b163a;}</style></defs><path class="cls-1" d="M156.05,30.24C147.7,35.36,139.12,40.12,130.6,45v-7a20.59,20.59,0,0,0-.82-6.49C127,23.05,120,18.17,110.33,18.11c-12.28-.08-24.56,0-36.84,0s-24.78,0-37.17,0c-13.71,0-20.43,10.66-20.23,20.28.44,20,.13,39.91.14,59.87,0,11.74,7.53,19.83,19.37,19.93q37.83.33,75.66,0c11.73-.11,19.31-8.33,19.32-20,0-2.32,0-4.64,0-7,8.93,5.08,17.75,10.38,26.81,15.23,8.28,4.44,16.82-1,16.85-10.42,0-9.2,0-18.41,0-27.61s-.53-18.24.15-27.28A11.81,11.81,0,0,0,156.05,30.24Z"/></svg>