<svg id="Capa_1" data-name="Capa 1" xmlns="http://www.w3.org/2000/svg" viewBox="0 0 254 240"><defs><style>.cls-1{fill:#e53487;}.cls-2{fill:#fff;}.cls-3{fill:#3a153b;}</style></defs><path class="cls-1" d="M186.08,54a68.79,68.79,0,0,0-60.37-36.13h-3.62A68.1,68.1,0,0,0,68.42,128.36l27,32.53L95,200.65l.09.71a27,27,0,0,0,7.09,12c7.88,7.65,18,7.84,21.52,7.53.58,0,1.3.07,2.12.07,4.74,0,13-1.08,19.75-7.6a27.09,27.09,0,0,0,7.11-12l.09-.34-.49-40.13,27-32.53,0-.06A68.42,68.42,0,0,0,186.08,54ZM147.74,195.85a55.79,55.79,0,0,1-23.91,5.41h0A55.41,55.41,0,0,1,100,195.85l.12-9.95A59.58,59.58,0,0,0,123.78,191h.1a59.51,59.51,0,0,0,23.73-5.08Zm-.17-13.46a56.3,56.3,0,0,1-23.69,5.35h-.1a56.54,56.54,0,0,1-23.65-5.34l.12-9.9a58.7,58.7,0,0,0,23.53,5h0a58.76,58.76,0,0,0,23.62-5Zm-5.48,27.46c-6.61,6.42-15.51,6.27-18.42,6.15-3.36.21-11.65.08-18.07-6.15a22.27,22.27,0,0,1-5.69-9.5v-1a58.71,58.71,0,0,0,23.86,5.11h0a58.68,58.68,0,0,0,24-5.12v1A22.14,22.14,0,0,1,142.09,209.85Zm33.35-84.63-28.16,33.91.12,9.84a55.45,55.45,0,0,1-23.57,5.27h0A55.51,55.51,0,0,1,100.29,169l.12-9.85L72.28,125.25A63.16,63.16,0,0,1,122.2,22.83l1.72,0c23.85-.4,46.65,12.5,57.8,33.48A63.49,63.49,0,0,1,175.44,125.22Z"/><path class="cls-1" d="M123.85,60.82a32.39,32.39,0,0,0-5,64.39v20.58H106.58v9.93h12.23V172h10.08V155.72h12.23v-9.93H128.89V125.21a32.39,32.39,0,0,0-5-64.39Zm0,54.09a22,22,0,1,1,22-22A22.07,22.07,0,0,1,123.85,114.91Z"/><path class="cls-2" d="M99.12,128.89a51,51,0,0,1-10.26-1.28L87,127.25a1.51,1.51,0,0,1-1.2-1.67l.73-5.57a1.52,1.52,0,0,1,.58-1,1.49,1.49,0,0,1,.91-.31l.2,0a86.48,86.48,0,0,0,10.48.92c3.54,0,4-1.48,4-3.08a1.57,1.57,0,0,0-.66-1.4,16.1,16.1,0,0,0-4.61-1.8c-4.3-1.23-7.29-2.68-9.14-4.45a10.15,10.15,0,0,1-2.93-7.67c0-4,1.27-7.06,3.79-9.09s5.71-2.93,9.79-2.93A60.26,60.26,0,0,1,109,90.28l1.9.37a1.49,1.49,0,0,1,1.2,1.62L111.55,98a1.51,1.51,0,0,1-.55,1,1.54,1.54,0,0,1-.94.33h-.17c-4.82-.54-8.26-.82-10.2-.82-4.18,0-4.18,1.57-4.18,2.25a1.35,1.35,0,0,0,.71,1.28,32.84,32.84,0,0,0,6.25,2.39c3.72,1.2,6.3,2.56,7.87,4.16s2.52,4.22,2.52,7.54c0,4.16-1.32,7.38-3.92,9.58A14.72,14.72,0,0,1,99.12,128.89Z"/><path class="cls-3" d="M99,90.72a58.31,58.31,0,0,1,9.8,1l1.87.36-.57,5.68Q102.71,97,99.69,97C95.91,97,94,98.22,94,100.72a2.84,2.84,0,0,0,1.41,2.55,36.46,36.46,0,0,0,6.59,2.55c3.46,1.12,5.88,2.37,7.27,3.78s2.08,3.57,2.08,6.49c0,3.71-1.13,6.53-3.39,8.44a13.22,13.22,0,0,1-8.85,2.86,49.49,49.49,0,0,1-10-1.25l-1.88-.36L88,120.2a86.05,86.05,0,0,0,10.68.94q5.52,0,5.52-4.58A3.05,3.05,0,0,0,103,114a18.32,18.32,0,0,0-5.08-2q-6-1.73-8.52-4.09a8.69,8.69,0,0,1-2.47-6.59c0-3.54,1.07-6.18,3.23-7.92s5.1-2.6,8.85-2.6m0-3c-4.43,0-8,1.1-10.74,3.26-2.88,2.33-4.34,5.78-4.34,10.26a11.6,11.6,0,0,0,3.4,8.76c2,1.94,5.22,3.51,9.77,4.8a15.55,15.55,0,0,1,4.13,1.57l0,0a.7.7,0,0,0,0,.16c0,.92,0,1.58-2.52,1.58a85.52,85.52,0,0,1-10.28-.91,2.69,2.69,0,0,0-.4,0,3,3,0,0,0-1.82.62,3,3,0,0,0-1.15,2l-.73,5.58a3,3,0,0,0,2.4,3.33l1.88.37a52.3,52.3,0,0,0,10.52,1.3,16.19,16.19,0,0,0,10.79-3.57c3-2.5,4.45-6.11,4.45-10.73,0-3.72-1-6.62-3-8.6-1.75-1.77-4.52-3.25-8.48-4.52A32.09,32.09,0,0,1,97,100.73h0a.76.76,0,0,1,0-.29h0s.53-.46,2.64-.46c1.89,0,5.26.27,10,.81l.34,0a3,3,0,0,0,3-2.7l.58-5.68a3,3,0,0,0-2.42-3.24l-1.87-.37h0A61.36,61.36,0,0,0,99,87.72Z"/><path class="cls-2" d="M133.76,128.27a1.5,1.5,0,0,1-1.5-1.5v-14a9.81,9.81,0,0,0-.63-4.2c-.11-.23-.37-.76-1.77-.76a12.13,12.13,0,0,0-3.25.45v18.48a1.5,1.5,0,0,1-1.5,1.5h-7a1.51,1.51,0,0,1-1.5-1.5V90.3a1.5,1.5,0,0,1,1.5-1.5h7a1.5,1.5,0,0,1,1.5,1.5v9.33a13.8,13.8,0,0,1,5-1c4,0,6.84,1.27,8.45,3.76,1.49,2.33,2.21,5.69,2.21,10.3v14.12a1.5,1.5,0,0,1-1.5,1.5Z"/><path class="cls-3" d="M125.11,90.3V102a14.31,14.31,0,0,1,6.46-1.88c3.48,0,5.87,1,7.19,3.08s2,5.21,2,9.48v14.12h-7v-14a11.59,11.59,0,0,0-.78-4.87,3.13,3.13,0,0,0-3.12-1.59,13.7,13.7,0,0,0-4.07.63l-.68.21v19.59h-7V90.3h7m0-3h-7a3,3,0,0,0-3,3v36.47a3,3,0,0,0,3,3h7a3,3,0,0,0,3-3V109.49a10.43,10.43,0,0,1,1.75-.15,2.27,2.27,0,0,1,.49,0,9.93,9.93,0,0,1,.41,3.41v14a3,3,0,0,0,3,3h7a3,3,0,0,0,3-3V112.65c0-4.9-.8-8.54-2.45-11.11-1.91-3-5.17-4.45-9.72-4.45a13.52,13.52,0,0,0-3.46.48V90.3a3,3,0,0,0-3-3Z"/><rect class="cls-2" x="28.46" y="121.84" width="10.19" height="38.42" rx="1.5"/><path class="cls-3" d="M37.15,123.34v35.43H30V123.34h7.19m0-3H30a3,3,0,0,0-3,3v35.43a3,3,0,0,0,3,3h7.19a3,3,0,0,0,3-3V123.34a3,3,0,0,0-3-3Z"/><path class="cls-2" d="M61.48,160.27a1.5,1.5,0,0,1-1.5-1.5V144.86a10.09,10.09,0,0,0-.63-4.27c-.11-.22-.37-.75-1.78-.75a10.41,10.41,0,0,0-3.24.52v18.41a1.5,1.5,0,0,1-1.5,1.5h-7a1.5,1.5,0,0,1-1.5-1.5V132.72a1.5,1.5,0,0,1,1.5-1.5h6.93a1.52,1.52,0,0,1,1.23.63,13,13,0,0,1,5.28-1.26c4,0,6.84,1.27,8.45,3.76,1.5,2.33,2.22,5.69,2.22,10.3v14.12a1.5,1.5,0,0,1-1.5,1.5Z"/><path class="cls-3" d="M59.29,132.09c3.48,0,5.87,1,7.19,3.08s2,5.21,2,9.48v14.12h-7V144.86a11.75,11.75,0,0,0-.78-4.93,3.14,3.14,0,0,0-3.13-1.59,11.94,11.94,0,0,0-4.11.73l-.63.21v19.49h-7V132.72h6.93v1.46a13,13,0,0,1,6.51-2.09m0-3a14,14,0,0,0-5,1,3,3,0,0,0-1.49-.39H45.85a3,3,0,0,0-3,3v26.05a3,3,0,0,0,3,3h7a3,3,0,0,0,3-3V141.51a9.16,9.16,0,0,1,1.74-.17,2.12,2.12,0,0,1,.49,0,9.77,9.77,0,0,1,.42,3.47v13.91a3,3,0,0,0,3,3h7a3,3,0,0,0,3-3V144.65c0-4.9-.8-8.54-2.45-11.11-1.91-2.95-5.18-4.45-9.72-4.45Z"/><path class="cls-2" d="M79.87,160.27a1.5,1.5,0,0,1-1.46-1.15l-6.25-26.05a1.5,1.5,0,0,1,1.46-1.85h7.29a1.51,1.51,0,0,1,1.47,1.19L85.83,149l3.62-16.64a1.5,1.5,0,0,1,1.46-1.18H98a1.48,1.48,0,0,1,1.17.57,1.51,1.51,0,0,1,.29,1.28l-6.25,26.05a1.52,1.52,0,0,1-1.46,1.15Z"/><path class="cls-3" d="M98,132.72h0m0,0-6.25,26.05H79.87l-6.25-26.05h7.29l4.17,20.11h1.46l4.37-20.11H98m0-3H90.91A3,3,0,0,0,88,132.08l-2.12,9.74-2-9.71a3,3,0,0,0-2.94-2.39H73.62a3,3,0,0,0-2.92,3.7L77,159.47a3,3,0,0,0,2.92,2.3H91.75a3,3,0,0,0,2.91-2.3l6.22-25.92a2.87,2.87,0,0,0,.12-.83,3,3,0,0,0-3-3Zm0,6Z"/><path class="cls-2" d="M113.16,160.89c-4.37,0-7.63-1.23-9.69-3.65s-3-6-3-11.13c0-12.82,7.07-15.52,13-15.52,8.41,0,12.86,4.59,12.86,13.28,0,0,0,.1,0,.16l-.52,4.84a1.5,1.5,0,0,1-1.49,1.34H110.72a2,2,0,0,0,.53.83,3.78,3.78,0,0,0,2.53.71c3.17,0,6-.11,8.53-.31l1.42-.16h.16a1.51,1.51,0,0,1,1,.38,1.48,1.48,0,0,1,.51,1.09l.1,5.16a1.5,1.5,0,0,1-1.14,1.49A47.8,47.8,0,0,1,113.16,160.89Zm3.22-19a3.71,3.71,0,0,0-.59-1.91,3.13,3.13,0,0,0-2.29-.67,3.09,3.09,0,0,0-2.32.72,3.85,3.85,0,0,0-.63,1.86Z"/><path class="cls-3" d="M113.47,132.09q11.36,0,11.36,11.78l-.52,4.84H109a4.51,4.51,0,0,0,1.28,3.47,5.17,5.17,0,0,0,3.51,1.06c3.23,0,6.12-.1,8.65-.31l1.46-.16.1,5.16a46.29,46.29,0,0,1-10.83,1.46c-3.93,0-6.77-1-8.55-3.13S102,150.8,102,146.11q0-14,11.51-14m-4.53,11.31h9q0-3.14-1-4.35a5.44,5.44,0,0,0-6.95,0,7.15,7.15,0,0,0-1.07,4.3m4.53-14.31c-5.42,0-14.51,2.21-14.51,17,0,5.47,1.1,9.43,3.37,12.1s6,4.18,10.83,4.18a49.63,49.63,0,0,0,11.54-1.54,3,3,0,0,0,2.29-3l-.1-5.16a3,3,0,0,0-.61-1.74,3,3,0,0,0,1-1.94l.52-4.84c0-.11,0-.22,0-.32,0-9.53-5.1-14.78-14.36-14.78Z"/><path class="cls-2" d="M147.07,160.27a1.5,1.5,0,0,1-1.5-1.5V144.86a10.09,10.09,0,0,0-.63-4.27c-.11-.22-.37-.75-1.78-.75a10.41,10.41,0,0,0-3.24.52v18.41a1.5,1.5,0,0,1-1.5,1.5h-7a1.51,1.51,0,0,1-1.5-1.5V132.72a1.5,1.5,0,0,1,1.5-1.5h6.93a1.51,1.51,0,0,1,1.23.63,13,13,0,0,1,5.28-1.26c4,0,6.85,1.27,8.45,3.76,1.5,2.33,2.22,5.69,2.22,10.3v14.12a1.5,1.5,0,0,1-1.5,1.5Z"/><path class="cls-3" d="M144.88,132.09c3.48,0,5.87,1,7.19,3.08s2,5.21,2,9.48v14.12h-7V144.86a11.75,11.75,0,0,0-.78-4.93,3.14,3.14,0,0,0-3.13-1.59,11.94,11.94,0,0,0-4.11.73l-.63.21v19.49h-7V132.72h6.93v1.46a13,13,0,0,1,6.51-2.09m0-3a14,14,0,0,0-5,1,3,3,0,0,0-1.49-.39h-6.93a3,3,0,0,0-3,3v26.05a3,3,0,0,0,3,3h7a3,3,0,0,0,3-3V141.51a9.16,9.16,0,0,1,1.74-.17,2.12,2.12,0,0,1,.49,0,9.77,9.77,0,0,1,.42,3.47v13.91a3,3,0,0,0,3,3h7a3,3,0,0,0,3-3V144.65c0-4.9-.8-8.54-2.45-11.11-1.91-2.95-5.18-4.45-9.72-4.45Z"/><path class="cls-2" d="M171,160.89c-3.59,0-6.13-.9-7.57-2.66s-2.06-4.55-2.06-8.74v-9.33h-1.58a1.5,1.5,0,0,1-1.5-1.5v-5.94a1.5,1.5,0,0,1,1.5-1.5h1.58v-2.46c-1.06.09-2,.13-3,.13-4.36,0-7.62-1.23-9.68-3.65s-3-6-3-11.13c0-12.82,7.08-15.52,13-15.52,8.41,0,12.85,4.59,12.85,13.28V112l-.53,4.84a1.5,1.5,0,0,1-1.49,1.34H156a1.86,1.86,0,0,0,.53.83,3.77,3.77,0,0,0,2.53.71c3.16,0,6-.11,8.52-.31l1.43-.16h.16a1.51,1.51,0,0,1,1.5,1.47l.07,3.51a1.51,1.51,0,0,1,.63,1.23v5.74h4.91a1.5,1.5,0,0,1,1.5,1.5v5.94a1.5,1.5,0,0,1-1.5,1.5h-4.91v9.18a19.25,19.25,0,0,0,.07,2,.31.31,0,0,0,.11.21h0a1.61,1.61,0,0,0,.51.06l4-.11a1.51,1.51,0,0,1,1.5,1.42l.31,5.58a1.5,1.5,0,0,1-1.17,1.54A27.55,27.55,0,0,1,171,160.89Zm-9.37-51a3.75,3.75,0,0,0-.58-1.91,3.16,3.16,0,0,0-2.3-.67,3.11,3.11,0,0,0-2.32.72,4,4,0,0,0-.63,1.86Z"/><path class="cls-3" d="M158.77,100.09q11.35,0,11.35,11.78l-.52,4.84H154.29a4.54,4.54,0,0,0,1.27,3.47,5.21,5.21,0,0,0,3.52,1.06q4.84,0,8.65-.31l1.46-.16.09,4.71h.61v7.24h6.41v5.94h-6.41v10.68a21.68,21.68,0,0,0,.08,2.21,1.76,1.76,0,0,0,.57,1.12,2.18,2.18,0,0,0,1.54.47l4-.11.31,5.58a26.6,26.6,0,0,1-5.32.78c-3.12,0-5.26-.7-6.4-2.11s-1.72-4-1.72-7.79V138.66h-3.08v-5.94h3.08V127.1a39.05,39.05,0,0,1-4.46.29q-5.88,0-8.54-3.13t-2.66-10.15q0-14,11.52-14m-4.53,11.31h9q0-3.14-1-4.35a5.45,5.45,0,0,0-7,0,7.23,7.23,0,0,0-1.06,4.3m4.53-14.31c-5.42,0-14.52,2.21-14.52,17,0,5.47,1.11,9.43,3.37,12.1s5.75,4.08,10.33,4.18a3,3,0,0,0-1.12,2.33v5.94a3,3,0,0,0,3,3h.08v7.83c0,4.61.76,7.69,2.39,9.69s4.68,3.21,8.73,3.21a29.24,29.24,0,0,0,6-.85,3,3,0,0,0,2.34-3.1l-.32-5.57a3,3,0,0,0-3-2.84H176l-3.06.08c0-.22,0-.48,0-.78v-7.68h3.41a3,3,0,0,0,3-3v-5.94a3,3,0,0,0-3-3h-3.41v-4.24a3,3,0,0,0-.65-1.86l-.05-2.91a3,3,0,0,0-.61-1.74,3,3,0,0,0,1-1.94l.52-4.84c0-.11,0-.22,0-.32,0-9.53-5.1-14.78-14.35-14.78Z"/><path class="cls-2" d="M193.07,160.89c-6.15,0-13.48-2.64-13.48-15.2,0-4.63,1-8.31,3.07-10.95s5.64-4.15,10.41-4.15,8.28,1.4,10.41,4.15,3.07,6.33,3.07,10.95C206.55,158.25,199.22,160.89,193.07,160.89Zm0-21.36c-1.7,0-2.26.62-2.53,1.08-.4.68-.87,2.1-.87,5.08s.48,4.44.88,5.14c.27.48.83,1.12,2.52,1.12s2.25-.64,2.53-1.12c.39-.69.87-2.15.87-5.14s-.47-4.41-.86-5.08C195.33,140.15,194.78,139.53,193.07,139.53Z"/><path class="cls-3" d="M193.07,132.09q6.47,0,9.22,3.57t2.76,10q0,13.69-12,13.7t-12-13.7q0-6.47,2.76-10t9.22-3.57m0,21.36a4,4,0,0,0,3.83-1.87,12.39,12.39,0,0,0,1.07-5.89,12.1,12.1,0,0,0-1.07-5.84,4.94,4.94,0,0,0-7.66,0,12.1,12.1,0,0,0-1.07,5.84,12.39,12.39,0,0,0,1.07,5.89,4,4,0,0,0,3.83,1.87m0-24.36c-5.26,0-9.16,1.6-11.59,4.74-2.25,2.9-3.39,6.89-3.39,11.86,0,14.53,9.39,16.7,15,16.7s15-2.17,15-16.7c0-5-1.14-8.95-3.38-11.86-2.44-3.14-6.34-4.74-11.6-4.74Zm0,21.36c-1,0-1.17-.27-1.22-.36-.2-.35-.68-1.5-.68-4.4s.46-4,.66-4.32.77-.34,1.24-.34,1.08.06,1.24.34.66,1.43.66,4.32-.47,4.05-.68,4.4c0,.09-.2.36-1.22.36Z"/><path class="cls-2" d="M211.77,160.27a1.51,1.51,0,0,1-1.5-1.5V132.72a1.5,1.5,0,0,1,1.5-1.5h6.93a1.5,1.5,0,0,1,1.5,1.5V133a26.25,26.25,0,0,1,6.55-2.33,1.36,1.36,0,0,1,.29,0,1.52,1.52,0,0,1,1.5,1.5v7a1.49,1.49,0,0,1-1.19,1.46c-2.76.58-5.15,1.18-7.1,1.79v16.39a1.5,1.5,0,0,1-1.5,1.5Z"/><path class="cls-3" d="M227,132.09v7c-2.82.59-5.23,1.19-7.24,1.82l-1.05.36v17.46h-7V132.72h6.93v2.76a26.46,26.46,0,0,1,8.34-3.39m0-3a2.78,2.78,0,0,0-.58.06,25.49,25.49,0,0,0-5.39,1.73,3,3,0,0,0-2.37-1.16h-6.93a3,3,0,0,0-3,3v26.05a3,3,0,0,0,3,3h7a3,3,0,0,0,3-3V143.5c1.69-.49,3.67-1,5.91-1.44a3,3,0,0,0,2.38-2.93v-7a3,3,0,0,0-3-3Z"/></svg>